<?xml version="1.0" encoding="UTF-8" standalone="no"?>
<!-- Generator: Adobe Illustrator 15.0.0, SVG Export Plug-In . SVG Version: 6.00 Build 0)  -->

<svg
   xmlns:dc="http://purl.org/dc/elements/1.1/"
   xmlns:cc="http://creativecommons.org/ns#"
   xmlns:rdf="http://www.w3.org/1999/02/22-rdf-syntax-ns#"
   xmlns:svg="http://www.w3.org/2000/svg"
   xmlns="http://www.w3.org/2000/svg"
   xmlns:sodipodi="http://sodipodi.sourceforge.net/DTD/sodipodi-0.dtd"
   xmlns:inkscape="http://www.inkscape.org/namespaces/inkscape"
   version="1.1"
   x="0px"
   y="0px"
   width="200"
   height="72"
   viewBox="0 0 200 72.000003"
   enable-background="new 0 0 841.89 595.277"
   xml:space="preserve"
   id="svg2"
   inkscape:version="0.48.3.1 r9886"
   sodipodi:docname="codeweekeu_logo.svg"><metadata
   id="metadata92"><rdf:RDF><cc:Work
       rdf:about=""><dc:format>image/svg+xml</dc:format><dc:type
         rdf:resource="http://purl.org/dc/dcmitype/StillImage" /></cc:Work></rdf:RDF></metadata><defs
   id="defs90">
	
	

		
		
		
			
		
		
		
		
		
		
		
			
		
		
		
		
	
		
		
	</defs><sodipodi:namedview
   pagecolor="#ffffff"
   bordercolor="#666666"
   borderopacity="1"
   objecttolerance="10"
   gridtolerance="10"
   guidetolerance="10"
   inkscape:pageopacity="0"
   inkscape:pageshadow="2"
   inkscape:window-width="1280"
   inkscape:window-height="751"
   id="namedview88"
   showgrid="false"
   inkscape:zoom="1.2727078"
   inkscape:cx="428.76308"
   inkscape:cy="156.98901"
   inkscape:window-x="0"
   inkscape:window-y="29"
   inkscape:window-maximized="1"
   inkscape:current-layer="svg2" />
<g
   id="g3151"
   transform="matrix(0.69795117,0,0,0.69795117,-45.15693,-36.322007)"><rect
     style="fill:#478ac8"
     id="rect6"
     height="103.114"
     width="286.55301"
     y="52.085999"
     x="65.824997" /><g
     style="opacity:0.77999998"
     id="g11">
			<path
   style="fill:#ffffff"
   inkscape:connector-curvature="0"
   id="path13"
   d="m 110.439,113.248 c -1.716,1.554 -3.965,2.331 -6.748,2.331 -3.572,0 -6.261,-1.31 -8.07,-3.931 -1.554,-2.249 -2.331,-5.252 -2.331,-9.008 0,-3.757 0.8,-6.806 2.4,-9.148 1.832,-2.644 4.568,-3.965 8.209,-3.965 2.481,0 4.58,0.684 6.295,2.052 1.229,0.974 2.099,2.168 2.609,3.583 l -1.079,0.556 c -1.136,-3.431 -3.814,-5.147 -8.034,-5.147 -3.131,0 -5.508,1.283 -7.13,3.849 -1.369,2.174 -2.052,4.902 -2.052,8.186 0,3.307 0.66,6.012 1.982,8.115 1.577,2.543 3.918,3.815 7.026,3.815 2.504,0 4.533,-0.672 6.086,-2.017 1.206,-1.043 2.006,-2.388 2.4,-4.035 l 1.009,0.521 c -0.438,1.692 -1.296,3.106 -2.572,4.243 z" />
			<path
   style="fill:#ffffff"
   inkscape:connector-curvature="0"
   id="path15"
   d="m 118.614,99.508 c 1.391,-1.901 3.408,-2.852 6.052,-2.852 2.644,0 4.672,0.951 6.087,2.852 1.252,1.67 1.879,3.873 1.879,6.609 0,2.736 -0.626,4.951 -1.879,6.644 -1.438,1.855 -3.467,2.783 -6.087,2.783 -2.644,0 -4.661,-0.928 -6.052,-2.783 -1.252,-1.693 -1.879,-3.907 -1.879,-6.644 0,-2.736 0.626,-4.939 1.879,-6.609 z m 0.799,12.498 c 1.206,1.732 2.957,2.598 5.252,2.598 2.296,0 4.058,-0.866 5.287,-2.598 1.043,-1.479 1.565,-3.43 1.565,-5.854 0,-2.401 -0.521,-4.353 -1.565,-5.854 -1.229,-1.731 -2.991,-2.598 -5.287,-2.598 -2.319,0 -4.069,0.866 -5.252,2.598 -1.043,1.501 -1.565,3.453 -1.565,5.854 0,2.425 0.522,4.376 1.565,5.854 z" />
			<path
   style="fill:#ffffff"
   inkscape:connector-curvature="0"
   id="path17"
   d="m 151.657,115.09 h -1.113 v -4.005 c -1.182,2.972 -3.455,4.458 -6.817,4.458 -2.667,0 -4.696,-0.928 -6.087,-2.783 -1.252,-1.67 -1.878,-3.884 -1.878,-6.644 0,-2.736 0.626,-4.939 1.878,-6.609 1.414,-1.901 3.443,-2.852 6.087,-2.852 3.432,0 5.705,1.449 6.817,4.348 V 90.082 h 1.113 v 25.008 z m -2.678,-14.793 c -1.183,-1.731 -2.934,-2.598 -5.252,-2.598 -2.319,0 -4.069,0.866 -5.252,2.598 -1.066,1.479 -1.6,3.43 -1.6,5.854 0,2.424 0.522,4.376 1.565,5.854 1.206,1.732 2.968,2.598 5.287,2.598 2.318,0 4.069,-0.866 5.252,-2.598 1.043,-1.479 1.565,-3.43 1.565,-5.854 0,-2.401 -0.522,-4.352 -1.565,-5.854 z" />
			<path
   style="fill:#ffffff"
   inkscape:connector-curvature="0"
   id="path19"
   d="m 163.169,115.543 c -2.574,0 -4.534,-0.951 -5.878,-2.853 -1.16,-1.692 -1.74,-3.884 -1.74,-6.574 0,-2.69 0.58,-4.87 1.74,-6.539 1.344,-1.948 3.304,-2.922 5.878,-2.922 2.527,0 4.452,0.87 5.774,2.608 1.205,1.554 1.809,3.641 1.809,6.261 v 0.661 h -14.087 v 0.278 c 0,2.226 0.521,4.082 1.565,5.565 1.183,1.716 2.829,2.574 4.939,2.574 2.922,0 4.904,-1.368 5.948,-4.104 l 0.904,0.487 c -0.463,1.229 -1.194,2.238 -2.191,3.026 -1.298,1.022 -2.852,1.532 -4.661,1.532 z m 6.435,-10.4 c 0,-2.08 -0.499,-3.795 -1.495,-5.145 -1.113,-1.532 -2.679,-2.298 -4.696,-2.298 -2.087,0 -3.722,0.744 -4.904,2.229 -1.043,1.349 -1.635,3.087 -1.774,5.214 h 12.869 z" />
			<path
   style="fill:#ffffff"
   inkscape:connector-curvature="0"
   id="path21"
   d="m 172.526,90.082 h 1.183 l 6.122,22.922 6.191,-16.974 h 1.113 l 6.226,16.974 6.087,-22.922 h 1.182 l -6.678,25.009 h -1.183 l -6.191,-17.426 -6.191,17.426 h -1.183 l -6.678,-25.009 z" />
			<path
   style="fill:#ffffff"
   inkscape:connector-curvature="0"
   id="path23"
   d="m 209.396,115.543 c -2.574,0 -4.534,-0.951 -5.878,-2.853 -1.16,-1.692 -1.74,-3.884 -1.74,-6.574 0,-2.69 0.58,-4.87 1.74,-6.539 1.344,-1.948 3.304,-2.922 5.878,-2.922 2.527,0 4.452,0.87 5.774,2.608 1.205,1.554 1.809,3.641 1.809,6.261 v 0.661 h -14.087 v 0.278 c 0,2.226 0.522,4.082 1.565,5.565 1.183,1.716 2.829,2.574 4.939,2.574 2.922,0 4.904,-1.368 5.948,-4.104 l 0.904,0.487 c -0.464,1.229 -1.194,2.238 -2.191,3.026 -1.3,1.022 -2.853,1.532 -4.661,1.532 z m 6.434,-10.4 c 0,-2.08 -0.499,-3.795 -1.496,-5.145 -1.113,-1.532 -2.678,-2.298 -4.696,-2.298 -2.087,0 -3.721,0.744 -4.904,2.229 -1.043,1.349 -1.634,3.087 -1.773,5.214 h 12.869 z" />
			<path
   style="fill:#ffffff"
   inkscape:connector-curvature="0"
   id="path25"
   d="m 227.586,115.543 c -2.574,0 -4.534,-0.951 -5.878,-2.853 -1.16,-1.692 -1.74,-3.884 -1.74,-6.574 0,-2.69 0.58,-4.87 1.74,-6.539 1.344,-1.948 3.304,-2.922 5.878,-2.922 2.527,0 4.452,0.87 5.774,2.608 1.205,1.554 1.808,3.641 1.808,6.261 v 0.661 h -14.087 v 0.278 c 0,2.226 0.522,4.082 1.565,5.565 1.183,1.716 2.829,2.574 4.939,2.574 2.922,0 4.904,-1.368 5.948,-4.104 l 0.904,0.487 c -0.463,1.229 -1.194,2.238 -2.191,3.026 -1.297,1.022 -2.851,1.532 -4.66,1.532 z m 6.435,-10.4 c 0,-2.08 -0.499,-3.795 -1.496,-5.145 -1.112,-1.532 -2.678,-2.298 -4.695,-2.298 -2.087,0 -3.722,0.744 -4.904,2.229 -1.043,1.349 -1.635,3.087 -1.774,5.214 h 12.869 z" />
			<path
   style="fill:#ffffff"
   inkscape:connector-curvature="0"
   id="path27"
   d="m 239.064,90.082 h 1.113 v 17.242 l 10.4,-10.31 h 1.357 l -6.575,6.583 7.618,11.494 h -1.252 l -7.13,-10.713 -4.417,4.278 v 6.435 h -1.113 l -0.001,-25.009 0,0 z" />
		</g><polygon
     style="fill:#ffffff"
     id="polygon29"
     points="266.48,99.681 286.867,79.294 296.183,88.611 294.73,90.064 286.867,82.201 269.387,99.681 277.601,107.895 276.148,109.348 " /><rect
     style="fill:#ffffff"
     id="rect31"
     height="2.0549803"
     width="7.4379287"
     transform="matrix(-0.70710678,-0.70710678,0.70710678,-0.70710678,0,0)"
     y="131.33307"
     x="-268.12424" /><path
     style="fill:#ffffff"
     inkscape:connector-curvature="0"
     id="path33"
     d="m 296.401,123.546 c -3.738,0 -7.488,-1.432 -10.349,-4.293 l -7.977,-7.977 1.454,-1.453 7.976,7.977 c 4.879,4.878 12.769,4.929 17.589,0.109 2.353,-2.353 3.639,-5.466 3.623,-8.768 -0.015,-3.297 -1.326,-6.414 -3.689,-8.777 l -8.021,-8.021 1.453,-1.453 8.021,8.021 c 2.749,2.749 4.273,6.378 4.292,10.221 0.019,3.854 -1.482,7.487 -4.225,10.231 -2.79,2.79 -6.462,4.183 -10.147,4.183 z" /><path
     style="fill:#ffffff"
     inkscape:connector-curvature="0"
     id="path35"
     d="m 317.436,126.781 c -1.954,0 -3.908,-0.743 -5.393,-2.228 l -3.529,-3.529 1.454,-1.453 3.529,3.528 c 2.167,2.166 5.696,2.171 7.868,0.012 l 4.596,-4.57 1.449,1.458 -4.596,4.569 c -1.484,1.475 -3.432,2.213 -5.378,2.213 z" /><circle
     style="fill:#ffffff"
     sodipodi:ry="1.7130001"
     sodipodi:rx="1.7130001"
     sodipodi:cy="113.724"
     sodipodi:cx="258.91699"
     id="circle47"
     r="1.7130001"
     cy="113.724"
     cx="258.91699"
     d="m 260.62999,113.724 c 0,0.94606 -0.76693,1.713 -1.713,1.713 -0.94606,0 -1.713,-0.76694 -1.713,-1.713 0,-0.94606 0.76694,-1.713 1.713,-1.713 0.94607,0 1.713,0.76694 1.713,1.713 z" /></g>
<g
   id="Layer_2_1_"
   transform="matrix(0.58188028,0,0,0.58188028,-38.30229,-18.307807)">
</g>
</svg>