<?xml version="1.0" encoding="UTF-8" standalone="no"?>
<!-- Created with Inkscape (http://www.inkscape.org/) -->

<svg
   xmlns:dc="http://purl.org/dc/elements/1.1/"
   xmlns:cc="http://creativecommons.org/ns#"
   xmlns:rdf="http://www.w3.org/1999/02/22-rdf-syntax-ns#"
   xmlns:svg="http://www.w3.org/2000/svg"
   xmlns="http://www.w3.org/2000/svg"
   xmlns:sodipodi="http://sodipodi.sourceforge.net/DTD/sodipodi-0.dtd"
   xmlns:inkscape="http://www.inkscape.org/namespaces/inkscape"
   id="svg3004"
   version="1.1"
   inkscape:version="0.48.3.1 r9886"
   width="620"
   height="590"
   xml:space="preserve"
   sodipodi:docname="FWB_logo.svg"><metadata
     id="metadata3010"><rdf:RDF><cc:Work
         rdf:about=""><dc:format>image/svg+xml</dc:format><dc:type
           rdf:resource="http://purl.org/dc/dcmitype/StillImage" /><dc:title /></cc:Work></rdf:RDF></metadata><defs
     id="defs3008"><clipPath
       clipPathUnits="userSpaceOnUse"
       id="clipPath3020"><path
         d="m 0,0 5947.97,0 0,5700 L 0,5700 0,0 z"
         id="path3022"
         inkscape:connector-curvature="0" /></clipPath></defs><sodipodi:namedview
     pagecolor="#ffffff"
     bordercolor="#666666"
     borderopacity="1"
     objecttolerance="10"
     gridtolerance="10"
     guidetolerance="10"
     inkscape:pageopacity="0"
     inkscape:pageshadow="2"
     inkscape:window-width="1280"
     inkscape:window-height="751"
     id="namedview3006"
     showgrid="false"
     inkscape:zoom="0.79295461"
     inkscape:cx="186.36738"
     inkscape:cy="344.91255"
     inkscape:window-x="0"
     inkscape:window-y="29"
     inkscape:window-maximized="1"
     inkscape:current-layer="g3012" /><g
     id="g3012"
     inkscape:groupmode="layer"
     inkscape:label="ink_ext_XXXXXX"
     transform="matrix(1.25,0,0,-1.25,0,589.99998)"><g
       id="g3014"
       transform="matrix(0.1,0,0,0.1,-49.3855,-49.058466)"><g
         id="g3016"><g
           id="g3018"
           clip-path="url(#clipPath3020)"><path
             d="m 1663.01,5207.45 c -102.17,0 -171.91,-56.87 -175.97,-95.43 -4.27,-42.6 22.91,-84.23 59.71,-112.8 269.87,-211.06 -508.68,-621.59 -412.68,-1457.71 68.07,-591.31 748.76,-1397.88 889.09,-1397.88 5.33,0 9.94,1.23 13.64,3.6 108.42,70.22 -319.07,844.84 -416.98,1100.43 -217.34,573.68 110.82,940.66 238.86,1154.13 168.1,280.82 209.15,546.61 77.83,674.87 -100.08,98.12 -196.13,130.79 -273.5,130.79"
             style="fill:#231f20;fill-opacity:1;fill-rule:nonzero;stroke:none"
             id="path3024"
             inkscape:connector-curvature="0" /><path
             d="m 3624.11,4973.67 c -9.09,0 -18.38,-0.15 -27.87,-0.6 -991.56,-44.55 -1136.76,-1260.62 -1139.17,-1701.19 0,-37.82 2.97,-230.73 -41.27,-230.73 -8.95,0 -19.86,7.99 -33.25,26.91 -51.57,73.6 -198.71,287.58 -242.62,345.18 -12.64,16.39 -29.81,24.63 -46.58,24.63 -35.24,0 -68.48,-36.4 -53.28,-109.83 7.67,-37.27 106.04,-452.68 247.43,-623.62 40.68,-49.55 134.19,-119.51 230.87,-119.51 94.06,0 191.22,66.17 245.83,281.75 94.6,333.55 -17.69,1659.55 1111.95,1811.1 89.31,12.09 123.7,118.12 71.21,180.56 -37.26,44.14 -150.72,115.35 -323.25,115.35"
             style="fill:#231f20;fill-opacity:1;fill-rule:nonzero;stroke:none"
             id="path3026"
             inkscape:connector-curvature="0" /><path
             d="m 4229.04,3784.4 c -35.72,11.24 -37.32,33.44 -10.99,72.82 45.11,67.32 229.47,473.55 2.29,686.78 -18.45,17.37 -42.49,35.37 -68.45,47.9 -41.76,20.01 -94.29,-1.26 -93.54,-71.52 5.36,-515.04 -247.84,-613.88 -602.24,-617.66 l -42.11,0 0,-236.69 313.79,-21.69 5.71,-0.58 c 339.06,-26.64 543.16,-250.68 543.16,-508.86 0,-310.46 -257.89,-511.1 -543.1,-511.1 -94.63,0 -191.69,19.57 -270.1,68.66 -14.83,9.3 -34.84,23.73 -50.34,35.51 0,-40.14 0.3,-505.13 0.3,-505.13 108.2,-51.49 230.91,-82.06 389.68,-82.06 456.41,0 1027.23,336.37 1027.23,924.41 0,306.52 -254.16,610.34 -601.29,719.21"
             style="fill:#231f20;fill-opacity:1;fill-rule:nonzero;stroke:none"
             id="path3028"
             inkscape:connector-curvature="0" /><path
             d="M 794.906,790.031 739.98,599.02 c -2.168,-7.622 -3.679,-14.469 -4.492,-20.458 -0.836,-6.011 -1.461,-15.812 -1.879,-29.3 l -2.433,0 c -1.379,14.027 -2.586,24.117 -3.68,30.117 -1.125,5.992 -2.816,12.543 -5.148,19.641 L 672.395,746.371 622.562,598.652 c -2.425,-6.863 -4.222,-13.281 -5.328,-19.273 -1.089,-6 -2.347,-16.09 -3.679,-30.117 l -2.477,0 c -0.414,13.636 -0.973,23.41 -1.723,29.3 -0.761,5.879 -2.293,12.68 -4.597,20.458 l -54.918,191.011 -50.82,0 88.109,-290.769 43.223,0 36.246,116.179 c 1.121,3.68 2.039,8.821 2.761,15.368 0.786,6.562 1.368,14.543 1.778,23.941 l 2.043,0.199 c 0.414,-9.379 0.992,-17.379 1.769,-23.969 0.739,-6.519 1.731,-11.75 2.934,-15.539 l 36.472,-116.179 42.813,0 88.52,290.769 -50.782,0 z M 1051.76,627.332 c -1.48,0.527 -2.93,0.938 -4.3,1.207 -1.37,0.27 -2.97,0.41 -4.92,0.41 l -55.118,0 c -1.742,0 -3.211,-0.097 -4.391,-0.297 -1.176,-0.23 -2.679,-0.64 -4.629,-1.32 l -1.429,2.02 c 1.226,0.988 2.168,1.918 2.898,2.898 0.652,0.941 1.281,2.242 1.828,3.891 l 27.651,79.691 c 1.23,3.418 2.22,8.238 2.95,14.457 0.79,6.211 1.28,13.281 1.57,21.203 l 2.24,0 c 0.27,-7.922 0.78,-14.992 1.52,-21.203 0.78,-6.219 1.77,-11.039 2.99,-14.457 l 27.25,-79.691 c 0.55,-1.649 1.2,-2.95 1.95,-3.891 0.77,-0.98 1.81,-1.91 3.17,-2.898 l -1.23,-2.02 z m -15.98,162.699 -41.596,0 -105.715,-290.769 47.949,0 30.922,87.277 95.68,0 30.75,-87.277 47.73,0 -105.72,290.769 z m 248.41,-245.902 c -2.58,0 -4.56,-0.199 -5.93,-0.731 -1.4,-0.457 -2.75,-1.296 -4.09,-2.558 l -1.65,1.648 c 1.22,1.391 2.1,2.692 2.57,3.883 0.44,1.231 0.68,3.277 0.68,6.16 l 0,237.891 -47.92,0 0,-291.16 147.71,0 7.21,44.867 -98.58,0 z m 242.1,0 c -2.61,0 -4.62,-0.199 -5.97,-0.731 -1.34,-0.457 -2.68,-1.296 -4.08,-2.558 l -1.65,1.648 c 1.27,1.391 2.09,2.692 2.57,3.883 0.49,1.231 0.73,3.277 0.73,6.16 l 0,237.891 -47.95,0 0,-291.16 147.73,0 7.17,44.867 -98.55,0 z m 378.56,24.391 c -17.86,-19.258 -41.35,-28.879 -70.59,-28.879 -29.23,0 -52.76,9.621 -70.59,28.879 -17.83,19.281 -26.71,44.71 -26.71,76.421 0,31.539 8.97,56.981 26.93,76.309 17.97,19.352 41.55,29.031 70.78,29.031 28.66,0 52.01,-9.82 69.98,-29.429 17.93,-19.571 26.95,-44.922 26.95,-75.911 0,-31.711 -8.93,-57.14 -26.75,-76.421 m 34.14,184.902 c -27.34,28.09 -62.65,42.09 -105.96,42.09 -41.94,0 -76.45,-14.172 -103.58,-42.621 -27.14,-28.411 -40.68,-64.391 -40.68,-107.95 0,-44.121 13.6,-80.32 40.78,-108.492 27.19,-28.219 62.09,-42.328 104.71,-42.328 42.45,0 77.39,14.109 104.73,42.328 27.29,28.172 40.97,64.242 40.97,108.082 0,44.551 -13.68,80.84 -40.97,108.891 m 376.27,36.609 -46.14,0 0,-178.679 c 0,-8.36 0.68,-16.981 2.05,-25.961 1.37,-8.93 3.62,-19.739 6.76,-32.461 l -2.06,-0.399 c -3.81,11.039 -7.5,20.43 -11.12,28.059 -3.62,7.672 -7.88,15.101 -12.81,22.351 l -128.44,187.09 -42.83,0 0,-290.769 46.28,0 0,179.039 c 0,7.691 -0.58,15.34 -1.71,22.98 -1.16,7.641 -3.55,19.34 -7.11,35.059 l 2.07,0.41 c 4.63,-13.121 8.39,-22.738 11.39,-28.918 2.91,-6.121 7.07,-13.172 12.54,-21.113 l 128.24,-187.457 42.89,0 0,290.769 z m 166.48,0.391 -47.77,0 0,-291.16 47.77,0 0,291.16 z m 173.68,-246.293 c -2.58,0 -4.59,-0.199 -5.93,-0.731 -1.41,-0.457 -2.76,-1.296 -4.31,-2.558 l -1.46,1.43 c 1.15,1.562 1.97,3.011 2.48,4.421 0.58,1.461 0.82,3.329 0.82,5.84 l 0,64.141 c 0,2.047 -0.24,3.828 -0.82,5.43 -0.51,1.558 -1.33,3.097 -2.48,4.609 l 1.66,1.609 c 1.5,-1.199 2.87,-2.031 4.11,-2.441 1.23,-0.399 3.2,-0.68 5.93,-0.789 l 98.15,0 0,44.031 -98.15,0 c -2.48,0 -4.34,-0.211 -5.63,-0.641 -1.28,-0.371 -2.84,-1.3 -4.61,-2.66 l -1.66,1.649 c 1.42,2.07 2.32,3.793 2.78,5.133 0.53,1.378 0.72,2.988 0.72,4.929 l 0,59.219 c 0,2.031 -0.24,3.852 -0.82,5.422 -0.51,1.527 -1.33,3.18 -2.48,4.828 l 1.46,1.609 c 2.04,-1.347 3.78,-2.238 5.22,-2.769 1.42,-0.469 3.11,-0.699 5.02,-0.699 l 112.28,0 -4.89,44.89 -162.48,0 0,-290.769 162.05,0 5.32,44.867 -112.28,0 z m 303.03,81.75 -100.57,0 0,-43.008 100.57,0 0,43.008 z m 239.51,-73.047 c -9.19,-8.293 -21.93,-12.402 -38.32,-12.402 l -38.77,0 c -2.49,0 -4.3,-0.219 -5.6,-0.719 -1.16,-0.461 -2.66,-1.379 -4.47,-2.731 l -1.57,1.829 c 1.46,1.933 2.39,3.402 2.69,4.48 0.45,1.141 0.59,2.961 0.59,5.543 l 0,75 c 0,2.047 -0.14,3.699 -0.59,4.91 -0.3,1.227 -1.23,2.977 -2.69,5.129 l 1.57,1.848 c 1.81,-1.348 3.31,-2.278 4.47,-2.77 1.3,-0.5 3.11,-0.699 5.6,-0.699 l 37.09,0 c 10.39,0 18.72,-1 25,-2.988 6.29,-1.981 11.79,-5.43 16.43,-10.332 3.75,-4.098 6.79,-8.938 8.95,-14.461 2.19,-5.547 3.28,-11.239 3.28,-17.11 0,-14.757 -4.55,-26.25 -13.66,-34.527 m -8.78,128.309 c -7.28,-7.051 -17.7,-10.59 -31.22,-10.59 l -37.5,0 c -2.49,0 -4.3,-0.219 -5.53,-0.699 -1.23,-0.493 -2.73,-1.422 -4.47,-2.77 l -1.64,1.617 c 0.14,0.301 0.34,0.621 0.61,1.051 2.05,3.121 3.08,6.18 3.08,9.219 l 0,62.461 c -0.14,1.929 -0.48,3.519 -0.93,4.832 -0.51,1.277 -1.37,3.027 -2.76,5.23 l 1.64,1.61 c 1.57,-1.36 3.01,-2.243 4.27,-2.641 1.23,-0.441 3.14,-0.59 5.73,-0.59 l 31.97,0 c 16.8,0 28.96,-3.152 36.51,-9.379 7.48,-6.203 11.2,-15.863 11.2,-28.953 0,-13.258 -3.62,-23.418 -10.96,-30.398 m 52.01,-50.43 c -9.73,11.918 -23.19,19.5 -40.19,22.621 l 0,2.457 c 14.34,4.242 25.03,11.09 31.96,20.582 6.97,9.508 10.49,21.961 10.49,37.399 0,24.761 -7.96,43.621 -23.77,56.64 -15.92,13.102 -39.28,19.621 -70.15,19.621 l -81.11,0 0,-290.769 87.29,0 c 31.42,0 55.91,8.058 73.53,24.3 17.65,16.149 26.43,37.02 26.43,62.567 0,17.75 -4.81,32.641 -14.48,44.582 m 233.02,45.66 c -7.51,-6.73 -19.23,-10.129 -35.25,-10.129 l -28.27,0 c -2.59,0 -4.54,-0.23 -5.81,-0.73 -1.33,-0.461 -2.69,-1.332 -4.24,-2.563 l -1.6,1.621 c 1.6,1.782 2.74,3.45 3.35,4.969 0.62,1.453 0.92,3.18 0.92,5.113 l 0,66.59 c -0.55,2.457 -1.12,4.387 -1.74,5.86 -0.61,1.398 -1.43,2.867 -2.53,4.39 l 1.6,1.61 c 1.78,-1.36 3.29,-2.243 4.56,-2.641 1.15,-0.441 2.99,-0.59 5.49,-0.59 l 28.27,0 c 15.85,0 27.6,-3.402 35.15,-10.199 7.58,-6.731 11.34,-17.203 11.34,-31.43 0,-14.472 -3.69,-25.07 -11.24,-31.871 m -3.93,-61.762 c -2.69,3.942 -6.04,7.68 -10.04,11.18 -3.89,3.473 -8.53,6.762 -13.89,9.93 l 0.82,1.433 c 3.58,-0.953 6.76,-1.691 9.66,-2.14 2.87,-0.52 5.6,-0.731 8.2,-0.731 18,0 33.15,7.16 45.59,21.418 12.29,14.25 18.54,31.77 18.54,52.543 0,26.528 -8.09,46.75 -24.21,60.77 -16.08,13.968 -39.69,21.019 -70.66,21.019 l -76.88,0 0,-290.769 45.9,0 0,102.488 c 0,10.879 -0.3,18.91 -0.82,24.129 -0.58,5.211 -1.6,11.211 -3.04,18.031 l 2.01,0.621 c 2.3,-6.152 4.69,-11.441 7.08,-15.879 2.43,-4.453 6.38,-10.613 12.02,-18.55 l 74.52,-110.84 52.08,0 -76.88,115.347 z m 390.23,175.422 -47.78,0 0,-168.289 c 0,-27.832 -5.56,-48.633 -16.77,-62.351 -11.27,-13.731 -28.14,-20.582 -50.85,-20.582 -22.64,0 -39.58,6.851 -50.78,20.582 -11.24,13.718 -16.81,34.519 -16.81,62.351 l 0,168.289 -47.71,0 0,-163.531 c 0,-24.051 2.39,-43.668 7.14,-58.82 4.75,-15.149 12.16,-27.918 22.16,-38.301 10.93,-11.488 23.77,-20.277 38.6,-26.438 14.85,-6.121 30.63,-9.222 47.4,-9.222 16.8,0 32.64,3.101 47.47,9.222 14.79,6.161 27.69,14.95 38.63,26.438 9.93,10.383 17.32,23.152 22.13,38.301 4.81,15.152 7.17,34.769 7.17,58.82 l 0,163.531 z m 226.74,-149.402 c -1.33,2.582 -2.49,4.281 -3.38,5.043 -0.86,0.699 -2.12,1.34 -3.56,1.73 l 0,1.637 c 1.44,0.391 2.7,0.961 3.56,1.723 0.89,0.75 2.05,2.429 3.38,5.027 l 76.39,134.242 -52.49,0 -43.54,-81.789 c -3.59,-6.531 -5.94,-11.91 -7.17,-15.992 -1.27,-4.09 -2.22,-10.648 -2.9,-19.648 l -2.09,0 c -0.65,8.488 -1.64,14.847 -2.94,19.16 -1.26,4.297 -3.72,9.82 -7.27,16.48 l -43.61,81.789 -52.43,0 75.96,-134.242 c 1.27,-2.18 2.36,-3.758 3.38,-4.719 1.02,-0.961 2.32,-1.64 3.82,-2.031 l 0,-1.637 c -1.5,-0.39 -2.8,-1.101 -3.82,-2.05 -1.02,-0.942 -2.11,-2.551 -3.38,-4.723 l -78.86,-141.367 52.9,0 46.04,88.539 c 4.14,7.89 6.73,13.969 7.86,18.199 1.19,4.262 1.94,10.059 2.35,17.422 l 2.09,0 c 0.68,-8.34 1.6,-14.57 2.79,-18.75 1.13,-4.152 3.56,-9.801 7.28,-16.871 l 46.1,-88.539 52.84,0 -79.3,141.367 z m 224.72,-96.5 c -2.59,0 -4.55,-0.199 -5.94,-0.731 -1.4,-0.457 -2.84,-1.296 -4.34,-2.558 l -1.37,1.43 c 1.07,1.562 1.88,3.011 2.42,4.421 0.55,1.461 0.82,3.329 0.82,5.84 l 0,64.141 c 0,2.047 -0.27,3.828 -0.82,5.43 -0.54,1.558 -1.35,3.097 -2.42,4.609 l 1.64,1.609 c 1.47,-1.199 2.81,-2.031 4.07,-2.441 1.26,-0.399 3.17,-0.68 5.94,-0.789 l 98.16,0 0,44.031 -98.16,0 c -2.5,0 -4.33,-0.211 -5.63,-0.641 -1.3,-0.371 -2.8,-1.3 -4.65,-2.66 l -1.57,1.649 c 1.36,2.07 2.25,3.793 2.76,5.133 0.41,1.378 0.68,2.988 0.68,4.929 l 0,59.219 c 0,2.031 -0.27,3.852 -0.82,5.422 -0.54,1.527 -1.35,3.18 -2.42,4.828 l 1.37,1.609 c 2.08,-1.347 3.83,-2.238 5.22,-2.769 1.51,-0.469 3.15,-0.699 5.06,-0.699 l 112.26,0 -4.92,44.89 -162.43,0 0,-290.769 162.02,0 5.33,44.867 -112.26,0 z m 272.33,0 c -2.6,0 -4.64,-0.199 -5.94,-0.731 -1.37,-0.457 -2.73,-1.296 -4.13,-2.558 l -1.61,1.648 c 1.23,1.391 2.09,2.692 2.5,3.883 0.51,1.231 0.78,3.277 0.78,6.16 l 0,237.891 -47.95,0 0,-291.16 147.74,0 7.17,44.867 -98.56,0 z m 242.04,0 c -2.56,0 -4.54,-0.199 -5.95,-0.731 -1.33,-0.457 -2.66,-1.296 -4.09,-2.558 l -1.68,1.648 c 1.27,1.391 2.16,2.692 2.64,3.883 0.47,1.231 0.71,3.277 0.71,6.16 l 0,237.891 -47.98,0 0,-291.16 147.73,0 7.18,44.867 -98.56,0 z m 240.26,0 c -2.57,0 -4.61,-0.199 -5.91,-0.731 -1.4,-0.457 -2.87,-1.296 -4.34,-2.558 l -1.36,1.43 c 1.05,1.562 1.85,3.011 2.42,4.421 0.51,1.461 0.78,3.329 0.78,5.84 l 0,64.141 c 0,2.047 -0.27,3.828 -0.78,5.43 -0.57,1.558 -1.37,3.097 -2.42,4.609 l 1.57,1.609 c 1.54,-1.199 2.86,-2.031 4.13,-2.441 1.17,-0.399 3.18,-0.68 5.91,-0.789 l 98.12,0 0,44.031 -98.12,0 c -2.46,0 -4.33,-0.211 -5.63,-0.641 -1.27,-0.371 -2.84,-1.3 -4.62,-2.66 l -1.56,1.649 c 1.32,2.07 2.24,3.793 2.65,5.133 0.48,1.378 0.75,2.988 0.75,4.929 l 0,59.219 c 0,2.031 -0.27,3.852 -0.78,5.422 -0.57,1.527 -1.37,3.18 -2.42,4.828 l 1.36,1.609 c 2.05,-1.347 3.83,-2.238 5.3,-2.769 1.33,-0.469 3.07,-0.699 4.95,-0.699 l 112.33,0 -4.96,44.89 -162.43,0 0,-290.769 162.02,0 5.37,44.867 -112.33,0 z m 365.6,85.363 c -11.03,13.668 -32.21,28.918 -63.83,45.547 l -7,3.93 c -16.6,8.59 -27.77,15.851 -33.47,21.703 -5.63,5.879 -8.51,13.148 -8.51,21.93 0,10.66 3.15,18.687 9.36,24.07 6.22,5.379 15.54,8.098 27.97,8.098 10.17,0 19.23,-1.879 27.02,-5.661 7.78,-3.738 15.2,-9.847 22.13,-18.328 l 32.17,30.36 -3.28,3.238 c -10.07,10.121 -21.82,17.812 -35.11,23.141 -13.32,5.332 -27.66,7.992 -42.93,7.992 -25.44,0 -45.52,-6.621 -60.38,-19.942 -14.76,-13.32 -22.23,-31.449 -22.23,-54.418 0,-9.41 1.3,-17.953 3.93,-25.64 2.59,-7.641 6.52,-14.602 11.84,-20.86 5.75,-6.683 13.46,-13.472 23.2,-20.293 9.69,-6.808 21.99,-14.168 36.81,-22.109 l 7.21,-3.711 c 18.57,-9.82 30.8,-18.637 36.78,-26.43 5.97,-7.789 8.91,-16.738 8.91,-26.839 0,-12.43 -3.92,-22.258 -11.81,-29.508 -7.83,-7.211 -18.51,-10.883 -32.21,-10.883 -11.37,0 -21.82,2.609 -31.46,7.793 -9.49,5.168 -20.14,14.098 -31.89,26.668 l -31.59,-32.36 3.1,-2.918 c 14.39,-14.332 28.79,-24.66 43.28,-30.921 14.44,-6.27 30.9,-9.422 49.38,-9.422 27.39,0 49.11,7.351 65.13,22.023 15.98,14.637 23.97,34.817 23.97,60.36 0,21.82 -5.53,39.64 -16.49,53.39"
             style="fill:#231f20;fill-opacity:1;fill-rule:nonzero;stroke:none"
             id="path3030"
             inkscape:connector-curvature="0" /><path
             d="m 803.699,1508.44 -297.261,0 0,-527.928 87.085,0 0,213.198 c 0,4.44 -0.464,7.84 -1.3,10.21 -0.891,2.37 -2.403,5.15 -4.649,8.39 l 2.949,2.97 c 3.215,-2.47 5.981,-4.16 8.204,-5.02 2.246,-0.89 5.609,-1.33 10.023,-1.33 l 176.719,0 0,80 -178.203,0 c -5.43,0 -9.168,-0.34 -11.153,-1.09 -1.953,-0.78 -4.468,-2.26 -7.422,-4.48 l -2.992,2.58 c 3.231,3.77 5.324,6.87 6.317,9.31 0.988,2.51 1.507,5.48 1.507,8.92 l 0,106.82 c -0.988,5.21 -2.003,8.9 -3,11.11 -0.968,2.26 -2.578,4.61 -4.824,7.09 l 3.363,2.97 c 3.208,-2.47 5.934,-4.08 8.18,-4.83 2.211,-0.71 5.578,-1.1 10.024,-1.1 l 210.214,0 -13.781,82.21 z m 272.891,-446.45 c -4.69,0 -8.29,-0.41 -10.77,-1.28 -2.48,-0.89 -5.11,-2.43 -7.81,-4.65 l -2.62,2.58 c 2.01,2.75 3.51,5.4 4.47,7.99 0.99,2.65 1.5,6.17 1.5,10.61 l 0,116.47 c 0,3.68 -0.51,7.01 -1.5,9.87 -0.96,2.82 -2.46,5.58 -4.47,8.36 l 3,2.99 c 2.73,-2.25 5.21,-3.78 7.43,-4.5 2.24,-0.74 5.85,-1.27 10.77,-1.5 l 178.21,0 0,80 -178.21,0 c -4.44,0 -7.82,-0.34 -10.21,-1.09 -2.36,-0.78 -5.14,-2.36 -8.37,-4.87 l -2.99,2.97 c 2.48,3.77 4.19,6.87 5.03,9.31 0.88,2.51 1.31,5.48 1.31,8.92 l 0,107.55 c 0,3.71 -0.51,7 -1.5,9.88 -0.96,2.81 -2.46,5.73 -4.47,8.71 l 2.62,2.98 c 3.69,-2.51 6.9,-4.15 9.5,-5.03 2.59,-0.86 5.63,-1.28 9.08,-1.28 l 203.89,0 -8.93,81.46 -294.988,0 0,-527.928 294.288,0 9.63,81.478 -203.89,0 z m 19.73,609.02 -36.46,-102.29 63.98,0 68.48,102.29 -96,0 z m 648.47,-559.35 c -36.26,-34.6 -82.28,-51.89 -138.05,-51.89 l -41.67,0 c -4.98,0 -8.57,-0.34 -10.79,-1.13 -2.23,-0.72 -4.68,-2.34 -7.44,-4.8 l -3.35,2.97 c 2.7,2.72 4.45,5.18 5.23,7.43 0.71,2.22 1.09,5.82 1.09,10.77 l 0,338.97 c 0,3.69 -0.43,6.78 -1.32,9.29 -0.83,2.46 -2.54,5.43 -5,8.89 l 3.35,3.35 c 3.22,-2.48 5.97,-4.15 8.19,-5.04 2.24,-0.84 5.59,-1.28 10.04,-1.28 l 45.74,0 c 54.06,0 98.97,-17.42 134.72,-52.28 35.7,-34.84 53.54,-79.05 53.54,-132.58 0,-53.85 -18.12,-98.08 -54.28,-132.67 m 60.62,322.4 c -52.62,49.59 -119.3,74.38 -200.18,74.38 l -141.74,0 0,-527.928 138.74,0 c 83.6,0 151.5,24.918 203.76,74.798 52.18,49.85 78.29,112.84 78.29,189.02 0,76.86 -26.3,140.11 -78.87,189.73 m 354.46,-372.07 c -4.71,0 -8.3,-0.41 -10.81,-1.28 -2.51,-0.89 -5.07,-2.43 -7.84,-4.65 l -2.52,2.58 c 1.91,2.75 3.41,5.4 4.4,7.99 0.99,2.65 1.52,6.17 1.52,10.61 l 0,116.47 c 0,3.68 -0.53,7.01 -1.52,9.87 -0.99,2.82 -2.49,5.58 -4.4,8.36 l 2.9,2.99 c 2.7,-2.25 5.26,-3.78 7.46,-4.5 2.24,-0.74 5.86,-1.27 10.81,-1.5 l 178.21,0 0,80 -178.21,0 c -4.49,0 -7.89,-0.34 -10.25,-1.09 -2.38,-0.78 -5.15,-2.36 -8.4,-4.87 l -2.95,2.97 c 2.48,3.77 4.15,6.87 5,9.31 0.89,2.51 1.35,5.48 1.35,8.92 l 0,107.55 c 0,3.71 -0.53,7 -1.52,9.88 -0.99,2.81 -2.49,5.73 -4.4,8.71 l 2.52,2.98 c 3.76,-2.51 6.9,-4.15 9.5,-5.03 2.63,-0.86 5.65,-1.28 9.15,-1.28 l 203.89,0 -8.95,81.46 -295.04,0 0,-527.928 294.26,0 9.73,81.478 -203.89,0 z m 19.71,609.02 -36.48,-102.29 63.98,0 68.48,102.29 -95.98,0 z m 578.45,-368.87 c -13.61,-12.27 -34.95,-18.44 -63.95,-18.44 l -51.33,0 c -4.75,0 -8.27,-0.42 -10.62,-1.27 -2.36,-0.86 -4.85,-2.4 -7.62,-4.61 l -2.99,2.93 c 2.99,3.21 5.02,6.2 6.17,8.96 1.09,2.72 1.67,5.79 1.67,9.28 l 0,120.9 c -0.99,4.47 -2.08,7.98 -3.17,10.58 -1.11,2.63 -2.67,5.3 -4.67,8.03 l 2.99,2.99 c 3.23,-2.44 5.94,-4.12 8.2,-4.86 2.25,-0.73 5.57,-1.12 10.04,-1.12 l 51.33,0 c 28.79,0 50.03,-6.13 63.73,-18.41 13.86,-12.27 20.7,-31.29 20.7,-57.09 0,-26.32 -6.8,-45.58 -20.48,-57.87 M 2751.01,1190 c -4.97,7.16 -11.03,13.92 -18.24,20.26 -7.16,6.34 -15.64,12.33 -25.3,18.06 l 1.47,2.58 c 6.47,-1.72 12.32,-3.02 17.52,-3.9 5.17,-0.86 10.18,-1.32 14.89,-1.32 32.72,0 60.31,12.96 82.75,38.88 22.44,25.9 33.67,57.75 33.67,95.45 0,48.11 -14.65,84.88 -43.92,110.32 -29.23,25.38 -71.99,38.11 -128.29,38.11 l -139.53,0 0,-527.928 83.33,0 0,186.048 c 0,19.83 -0.51,34.46 -1.5,43.87 -1.01,9.46 -2.84,20.35 -5.6,32.75 l 3.7,1.15 c 4.24,-11.19 8.52,-20.82 12.83,-28.87 4.34,-8.03 11.64,-19.28 21.79,-33.65 l 135.45,-201.298 94.46,0 L 2751.01,1190 z m 566.75,23.04 c -2.76,1 -5.36,1.73 -7.82,2.24 -2.49,0.48 -5.5,0.79 -8.98,0.79 l -100.03,0 c -3.24,0 -5.88,-0.21 -8,-0.61 -2.11,-0.34 -4.88,-1.17 -8.4,-2.42 l -2.6,3.71 c 2.23,1.77 3.97,3.5 5.24,5.23 1.22,1.73 2.31,4.13 3.31,7.07 l 50.27,144.73 c 2.22,6.18 3.96,14.91 5.36,26.23 1.37,11.27 2.29,24.08 2.77,38.49 l 4.13,0 c 0.48,-14.41 1.4,-27.22 2.73,-38.49 1.37,-11.32 3.22,-20.05 5.43,-26.23 l 49.48,-144.73 c 1,-2.94 2.16,-5.34 3.56,-7.07 1.33,-1.73 3.28,-3.46 5.74,-5.23 l -2.19,-3.71 z m -29.03,295.4 -75.55,0 -192,-527.928 87.09,0 56.18,158.488 173.77,0 55.76,-158.488 86.68,0 -191.93,527.928 z m 579.98,0 -312.46,0 -11.17,-79.25 109.35,0 c 4.72,0 8.33,0.44 10.77,1.28 2.49,0.89 4.98,2.46 7.44,4.7 l 3.35,-3.01 c -2.77,-3.95 -4.45,-7.12 -5.23,-9.47 -0.72,-2.36 -1.09,-5.24 -1.09,-8.71 l 0,-433.468 85.52,0 0,433.468 c 0,3.96 -0.35,7.21 -1.23,9.87 -0.89,2.54 -2.43,5.46 -4.65,8.7 l 3,2.96 c 3.15,-2.48 5.91,-4.15 8.17,-5.04 2.19,-0.84 5.59,-1.28 10.04,-1.28 l 109.73,0 -11.54,79.25 z m 256.21,0.77 -86.65,0 0,-528.64 86.65,0 0,528.64 z m 575.87,-402.97 c -32.41,-34.95 -75.14,-52.4 -128.17,-52.4 -53.07,0 -95.79,17.45 -128.18,52.4 -32.34,34.98 -48.59,81.25 -48.59,138.75 0,57.36 16.36,103.53 48.94,138.61 32.65,35.12 75.47,52.68 128.55,52.68 52.08,0 94.42,-17.8 127.08,-53.39 32.58,-35.59 48.87,-81.58 48.87,-137.9 0,-57.5 -16.18,-103.77 -48.5,-138.75 m 61.92,335.81 c -49.56,50.94 -113.7,76.43 -192.35,76.43 -76.15,0 -138.9,-25.82 -188.04,-77.35 -49.28,-51.6 -73.8,-117.01 -73.8,-196.14 0,-80.05 24.62,-145.71 73.97,-196.94 49.36,-51.241 112.71,-76.839 190.13,-76.839 77.12,0 140.53,25.598 190.09,76.839 49.59,51.23 74.46,116.61 74.46,196.28 0,80.78 -24.87,146.73 -74.46,197.72 m 678.33,66.39 -83.67,0 0,-324.39 c 0,-15.15 1.23,-30.8 3.68,-47.11 2.53,-16.24 6.6,-35.85 12.31,-58.94 l -3.8,-0.76 c -6.86,20.11 -13.62,37.08 -20.18,50.99 -6.59,13.88 -14.38,27.4 -23.3,40.55 l -233.25,339.66 -77.73,0 0,-527.928 84.04,0 0,325.188 c 0,13.84 -1.05,27.73 -3.2,41.65 -2.09,13.89 -6.32,35.1 -12.78,63.64 l 3.7,0.73 c 8.46,-23.82 15.29,-41.33 20.69,-52.46 5.32,-11.16 12.94,-23.95 22.88,-38.31 l 232.88,-340.438 77.73,0 0,527.928"
             style="fill:#231f20;fill-opacity:1;fill-rule:nonzero;stroke:none"
             id="path3032"
             inkscape:connector-curvature="0" /></g></g></g></g></svg>